<svg width="48" height="48" viewBox="0 0 48 48" fill="none" xmlns="http://www.w3.org/2000/svg">
<!-- <path d="M39.3636 0.772202C34.7478 -0.888638 29.3847 0.129442 25.6861 3.828C21.9876 7.52652 20.9695 12.8897 22.6303 17.5055L0 40.1358L7.86416 48L30.4945 25.3696C35.1104 27.0304 40.4735 26.0123 44.172 22.3138C47.8706 18.6152 48.8887 13.2521 47.2278 8.63628L39.2697 16.5944L33.6014 14.3986L31.4055 8.73028L39.3636 0.772202ZM9.4472 38.5528C10.3497 39.4553 10.3497 40.9185 9.4472 41.821C8.54472 42.7235 7.08148 42.7235 6.179 41.821C5.27648 40.9185 5.27648 39.4552 6.179 38.5528C7.08148 37.6503 8.54472 37.6503 9.4472 38.5528Z" fill="white"/> -->
<path d="M0.199951 3.74283C0.199951 2.9093 0.531072 2.1099 1.12047 1.5205C1.70987 0.931098 2.50927 0.599976 3.34281 0.599976H41.0571C41.8906 0.599976 42.69 0.931098 43.2794 1.5205C43.8688 2.1099 44.1999 2.9093 44.1999 3.74283C44.1999 4.57637 43.8688 5.37577 43.2794 5.96517C42.69 6.55457 41.8906 6.88569 41.0571 6.88569H3.34281C2.50927 6.88569 1.70987 6.55457 1.12047 5.96517C0.531072 5.37577 0.199951 4.57637 0.199951 3.74283ZM0.199951 19.4571C0.199951 18.6236 0.531072 17.8242 1.12047 17.2348C1.70987 16.6454 2.50927 16.3143 3.34281 16.3143H41.0571C41.8906 16.3143 42.69 16.6454 43.2794 17.2348C43.8688 17.8242 44.1999 18.6236 44.1999 19.4571C44.1999 20.2907 43.8688 21.0901 43.2794 21.6795C42.69 22.2689 41.8906 22.6 41.0571 22.6H3.34281C2.50927 22.6 1.70987 22.2689 1.12047 21.6795C0.531072 21.0901 0.199951 20.2907 0.199951 19.4571ZM0.199951 35.1714C0.199951 34.3379 0.531072 33.5385 1.12047 32.9491C1.70987 32.3597 2.50927 32.0285 3.34281 32.0285H41.0571C41.8906 32.0285 42.69 32.3597 43.2794 32.9491C43.8688 33.5385 44.1999 34.3379 44.1999 35.1714C44.1999 36.0049 43.8688 36.8043 43.2794 37.3937C42.69 37.9831 41.8906 38.3143 41.0571 38.3143H3.34281C2.50927 38.3143 1.70987 37.9831 1.12047 37.3937C0.531072 36.8043 0.199951 36.0049 0.199951 35.1714Z" fill="white"/>

</svg>
